<mxfile host="Electron" modified="2024-05-12T08:41:30.044Z" agent="Mozilla/5.0 (X11; Linux x86_64) AppleWebKit/537.36 (KHTML, like Gecko) draw.io/24.2.5 Chrome/120.0.6099.109 Electron/28.1.0 Safari/537.36" etag="U2I-ftTUS1tsWw2w2gFz" version="24.2.5" type="device">
  <diagram name="Page-1" id="3Lm2j_zGh_7iPIKjbwx8">
    <mxGraphModel dx="478" dy="285" grid="0" gridSize="10" guides="1" tooltips="1" connect="1" arrows="1" fold="1" page="1" pageScale="1" pageWidth="827" pageHeight="1169" background="#000000" math="1" shadow="0">
      <root>
        <mxCell id="0" />
        <mxCell id="1" parent="0" />
        <mxCell id="dAKohn0v3PmrE5wiYi0E-1" value="$$\begin{bmatrix}3 &amp;amp; 1\\0 &amp;amp; 2\end{bmatrix}$$" style="text;html=1;align=center;verticalAlign=middle;whiteSpace=wrap;rounded=0;fontSize=16;" parent="1" vertex="1">
          <mxGeometry x="211.46" y="325" width="73.08" height="53" as="geometry" />
        </mxCell>
        <mxCell id="dAKohn0v3PmrE5wiYi0E-2" value="$$\begin{bmatrix}1 &amp;amp; 0\\0 &amp;amp; 1\end{bmatrix}$$" style="text;html=1;align=center;verticalAlign=middle;whiteSpace=wrap;rounded=0;fontSize=16;" parent="1" vertex="1">
          <mxGeometry x="284.46" y="325" width="73.08" height="53" as="geometry" />
        </mxCell>
        <mxCell id="dAKohn0v3PmrE5wiYi0E-3" value="" style="endArrow=classic;html=1;rounded=0;fontSize=12;startSize=4;endSize=2;curved=1;strokeColor=#FF9933;" parent="1" edge="1">
          <mxGeometry width="50" height="50" relative="1" as="geometry">
            <mxPoint x="205.46" y="349" as="sourcePoint" />
            <mxPoint x="291.46" y="349" as="targetPoint" />
          </mxGeometry>
        </mxCell>
        <mxCell id="dAKohn0v3PmrE5wiYi0E-4" value="" style="endArrow=classic;html=1;rounded=0;fontSize=12;startSize=4;endSize=2;curved=1;strokeColor=#FF9933;" parent="1" edge="1">
          <mxGeometry width="50" height="50" relative="1" as="geometry">
            <mxPoint x="205.00000000000003" y="378" as="sourcePoint" />
            <mxPoint x="291" y="378" as="targetPoint" />
          </mxGeometry>
        </mxCell>
        <mxCell id="dAKohn0v3PmrE5wiYi0E-5" value="" style="endArrow=classic;html=1;rounded=0;fontSize=12;startSize=4;endSize=2;curved=1;strokeColor=#FF9933;" parent="1" edge="1">
          <mxGeometry width="50" height="50" relative="1" as="geometry">
            <mxPoint x="317.46" y="329" as="sourcePoint" />
            <mxPoint x="317.46" y="381" as="targetPoint" />
          </mxGeometry>
        </mxCell>
        <mxCell id="dAKohn0v3PmrE5wiYi0E-6" value="$$= \begin{bmatrix}3 &amp;amp; \\0 &amp;amp; \end{bmatrix}$$" style="text;html=1;align=center;verticalAlign=middle;whiteSpace=wrap;rounded=0;fontSize=16;" parent="1" vertex="1">
          <mxGeometry x="354.46" y="325" width="73.08" height="53" as="geometry" />
        </mxCell>
        <mxCell id="SSsMaEumhd5rmT5hgwZY-1" value="" style="endArrow=classic;html=1;rounded=0;fontSize=12;startSize=8;endSize=4;curved=1;strokeColor=#FF6666;" parent="1" edge="1">
          <mxGeometry width="50" height="50" relative="1" as="geometry">
            <mxPoint x="360" y="160" as="sourcePoint" />
            <mxPoint x="360" y="120" as="targetPoint" />
          </mxGeometry>
        </mxCell>
        <mxCell id="SSsMaEumhd5rmT5hgwZY-2" value="" style="endArrow=classic;html=1;rounded=0;fontSize=12;startSize=8;endSize=4;curved=1;strokeColor=#B3FF66;" parent="1" edge="1">
          <mxGeometry width="50" height="50" relative="1" as="geometry">
            <mxPoint x="360" y="160" as="sourcePoint" />
            <mxPoint x="400" y="160" as="targetPoint" />
          </mxGeometry>
        </mxCell>
        <mxCell id="SSsMaEumhd5rmT5hgwZY-3" value="" style="endArrow=none;html=1;rounded=0;fontSize=12;startSize=8;endSize=8;curved=1;strokeColor=#FF99CC;" parent="1" edge="1">
          <mxGeometry width="50" height="50" relative="1" as="geometry">
            <mxPoint x="340" y="180" as="sourcePoint" />
            <mxPoint x="420" y="100" as="targetPoint" />
          </mxGeometry>
        </mxCell>
        <mxCell id="SSsMaEumhd5rmT5hgwZY-4" value="" style="endArrow=classic;html=1;rounded=0;fontSize=12;startSize=8;endSize=4;curved=1;strokeColor=#E3E300;" parent="1" edge="1">
          <mxGeometry width="50" height="50" relative="1" as="geometry">
            <mxPoint x="359.46" y="160" as="sourcePoint" />
            <mxPoint x="410" y="110" as="targetPoint" />
          </mxGeometry>
        </mxCell>
        <mxCell id="SSsMaEumhd5rmT5hgwZY-7" value="" style="endArrow=none;html=1;rounded=0;fontSize=12;startSize=8;endSize=8;curved=1;strokeColor=#FF99CC;" parent="1" edge="1">
          <mxGeometry width="50" height="50" relative="1" as="geometry">
            <mxPoint x="460" y="180" as="sourcePoint" />
            <mxPoint x="540" y="100" as="targetPoint" />
          </mxGeometry>
        </mxCell>
        <mxCell id="SSsMaEumhd5rmT5hgwZY-5" value="" style="endArrow=classic;html=1;rounded=0;fontSize=12;startSize=8;endSize=4;curved=1;strokeColor=#FF6666;" parent="1" edge="1">
          <mxGeometry width="50" height="50" relative="1" as="geometry">
            <mxPoint x="480" y="160" as="sourcePoint" />
            <mxPoint x="500" y="120" as="targetPoint" />
          </mxGeometry>
        </mxCell>
        <mxCell id="SSsMaEumhd5rmT5hgwZY-6" value="" style="endArrow=classic;html=1;rounded=0;fontSize=12;startSize=8;endSize=4;curved=1;strokeColor=#B3FF66;" parent="1" edge="1">
          <mxGeometry width="50" height="50" relative="1" as="geometry">
            <mxPoint x="480" y="160" as="sourcePoint" />
            <mxPoint x="520" y="170" as="targetPoint" />
          </mxGeometry>
        </mxCell>
        <mxCell id="SSsMaEumhd5rmT5hgwZY-8" value="" style="endArrow=classic;html=1;rounded=0;fontSize=12;startSize=8;endSize=4;curved=1;strokeColor=#E3E300;" parent="1" edge="1">
          <mxGeometry width="50" height="50" relative="1" as="geometry">
            <mxPoint x="479.46" y="160" as="sourcePoint" />
            <mxPoint x="540" y="120" as="targetPoint" />
          </mxGeometry>
        </mxCell>
        <mxCell id="L3WzJmXx6pOybGcf_Z70-1" value="$$\begin{bmatrix}3 &amp;amp; 1\\0 &amp;amp; 2\end{bmatrix}$$" style="text;html=1;align=center;verticalAlign=middle;whiteSpace=wrap;rounded=0;fontSize=16;" vertex="1" parent="1">
          <mxGeometry x="221.19" y="480" width="73.08" height="53" as="geometry" />
        </mxCell>
        <mxCell id="L3WzJmXx6pOybGcf_Z70-2" value="$$\begin{bmatrix}1 &amp;amp; 0\\0 &amp;amp; 1\end{bmatrix}$$" style="text;html=1;align=center;verticalAlign=middle;whiteSpace=wrap;rounded=0;fontSize=16;" vertex="1" parent="1">
          <mxGeometry x="306" y="480" width="73.08" height="53" as="geometry" />
        </mxCell>
        <mxCell id="L3WzJmXx6pOybGcf_Z70-8" value="$$\hat{i}_x$$" style="text;html=1;align=center;verticalAlign=middle;whiteSpace=wrap;rounded=0;fontSize=16;" vertex="1" parent="1">
          <mxGeometry x="321.81" y="450" width="20.54" height="30" as="geometry" />
        </mxCell>
        <mxCell id="L3WzJmXx6pOybGcf_Z70-9" value="$$\hat{i}_y$$" style="text;html=1;align=center;verticalAlign=middle;whiteSpace=wrap;rounded=0;fontSize=16;" vertex="1" parent="1">
          <mxGeometry x="346.81" y="450" width="20.54" height="30" as="geometry" />
        </mxCell>
        <mxCell id="L3WzJmXx6pOybGcf_Z70-10" value="&lt;font style=&quot;font-size: 15px;&quot;&gt;New landing&amp;nbsp;&lt;/font&gt;&lt;div style=&quot;font-size: 15px;&quot;&gt;&lt;font style=&quot;font-size: 15px;&quot;&gt;spot for&amp;nbsp;&lt;span style=&quot;background-color: initial;&quot;&gt;`hat{i}_x`&lt;/span&gt;&lt;/font&gt;&lt;/div&gt;" style="text;html=1;align=center;verticalAlign=middle;whiteSpace=wrap;rounded=0;fontSize=16;" vertex="1" parent="1">
          <mxGeometry x="153" y="546" width="120" height="47" as="geometry" />
        </mxCell>
        <mxCell id="L3WzJmXx6pOybGcf_Z70-11" value="&lt;font style=&quot;font-size: 15px;&quot;&gt;New landing&amp;nbsp;&lt;/font&gt;&lt;div style=&quot;font-size: 15px;&quot;&gt;&lt;font style=&quot;font-size: 15px;&quot;&gt;spot for&lt;/font&gt;&lt;font style=&quot;font-size: 15px;&quot;&gt;&amp;nbsp;&lt;span style=&quot;background-color: initial;&quot;&gt;`hat{i}_y`&lt;/span&gt;&lt;/font&gt;&lt;/div&gt;" style="text;html=1;align=center;verticalAlign=middle;whiteSpace=wrap;rounded=0;fontSize=16;" vertex="1" parent="1">
          <mxGeometry x="255.99999999999997" y="546" width="120" height="47" as="geometry" />
        </mxCell>
        <mxCell id="L3WzJmXx6pOybGcf_Z70-12" value="" style="endArrow=classic;html=1;rounded=0;fontSize=12;startSize=5;endSize=3;curved=1;entryX=0.606;entryY=0.035;entryDx=0;entryDy=0;entryPerimeter=0;exitX=0.285;exitY=0.981;exitDx=0;exitDy=0;exitPerimeter=0;strokeColor=#FF6666;" edge="1" parent="1" source="L3WzJmXx6pOybGcf_Z70-1" target="L3WzJmXx6pOybGcf_Z70-10">
          <mxGeometry width="50" height="50" relative="1" as="geometry">
            <mxPoint x="350" y="530" as="sourcePoint" />
            <mxPoint x="400" y="480" as="targetPoint" />
          </mxGeometry>
        </mxCell>
        <mxCell id="L3WzJmXx6pOybGcf_Z70-13" value="" style="endArrow=classic;html=1;rounded=0;fontSize=12;startSize=5;endSize=3;curved=1;entryX=0.278;entryY=0.035;entryDx=0;entryDy=0;entryPerimeter=0;exitX=0.7;exitY=1.025;exitDx=0;exitDy=0;exitPerimeter=0;strokeColor=#FF6666;" edge="1" parent="1" source="L3WzJmXx6pOybGcf_Z70-1" target="L3WzJmXx6pOybGcf_Z70-11">
          <mxGeometry width="50" height="50" relative="1" as="geometry">
            <mxPoint x="252" y="542" as="sourcePoint" />
            <mxPoint x="233" y="562" as="targetPoint" />
          </mxGeometry>
        </mxCell>
        <mxCell id="L3WzJmXx6pOybGcf_Z70-14" value="`A`" style="text;html=1;align=center;verticalAlign=middle;whiteSpace=wrap;rounded=0;fontSize=16;" vertex="1" parent="1">
          <mxGeometry x="227.73" y="456" width="60" height="30" as="geometry" />
        </mxCell>
        <mxCell id="L3WzJmXx6pOybGcf_Z70-15" value="&lt;font style=&quot;font-size: 14px;&quot;&gt;Basis vectors&lt;/font&gt;" style="text;html=1;align=center;verticalAlign=middle;whiteSpace=wrap;rounded=0;fontSize=16;" vertex="1" parent="1">
          <mxGeometry x="312.54" y="414" width="60" height="30" as="geometry" />
        </mxCell>
        <mxCell id="L3WzJmXx6pOybGcf_Z70-16" value="&lt;font style=&quot;font-size: 14px;&quot;&gt;Linear Transformation matrix&lt;/font&gt;" style="text;html=1;align=center;verticalAlign=middle;whiteSpace=wrap;rounded=0;fontSize=16;" vertex="1" parent="1">
          <mxGeometry x="227.73000000000002" y="414" width="60" height="30" as="geometry" />
        </mxCell>
      </root>
    </mxGraphModel>
  </diagram>
</mxfile>
